<?xml version="1.0"?><svg width="784.97937" height="621.38428" xmlns="http://www.w3.org/2000/svg">
 <title>comic_explosion</title>
 <defs>
  <filter color-interpolation-filters="sRGB" height="1" width="1" y="0" x="0" id="filter3690">
   <feGaussianBlur stdDeviation="8" id="feGaussianBlur3694"/>
  </filter>
  <filter color-interpolation-filters="sRGB" height="1" width="1" y="0" x="0" id="filter3706">
   <feGaussianBlur stdDeviation="8" id="feGaussianBlur3710"/>
  </filter>
 </defs>
 <metadata id="metadata7">image/svg+xml</metadata>
 <g>
  <title>Layer 1</title>
  <g id="layer4">
   <path fill="#f56d3c" stroke="#ff2626" stroke-width="5" stroke-miterlimit="4" id="path2891" d="m172.427856,80.603485c46.300476,31.624451 106.735962,88.1931 61.216248,-42.218102c54.037079,92.84774 83.808777,109.590385 75.992584,8.443619c26.054962,72.315636 50.641113,55.034813 73.881683,-44.329002c13.578369,194.295013 38.841309,128.609756 63.327148,80.214386c3.860352,14.043823 -5.299194,62.139557 14.776306,33.77449c61.876709,45.502396 115.831604,-30.179825 156.20697,-75.992584c-63.210571,112.866547 34.494141,74.570267 103.962097,62.799423c-91.411865,71.710052 25.486206,34.850494 48.023071,23.747681c-29.05481,25.11496 -65.926941,53.807312 -14.776367,42.218109c-57.104614,53.476105 -64.299255,97.745483 23.219971,124.543365c-30.867798,15.065674 -40.952393,46.286041 4.221802,46.439941c-28.393677,2.297119 -38.043152,17.274231 0,23.21994c-129.631775,24.689453 -50.170715,62.472168 -12.665405,92.879822c-188.379395,-52.170227 -83.211182,58.621002 -14.776367,109.766998c-121.176086,-72.162018 -256.690979,-129.328674 -143.541504,2.110962c-28.809082,-15.725342 -68.69043,-48.751221 -54.883545,2.110962c-44.945618,-59.836761 -55.449219,-48.76355 -52.772644,-10.554565c-43.802307,-48.394623 -67.300293,-26.646851 -80.214355,31.663574c-21.551147,-12.746338 -26.050842,-76.647156 -86.547119,27.441711c7.813324,-47.605347 -13.535614,-51.467224 -50.661713,-31.663574c0.455414,-58.503845 -46.696594,9.331909 -61.216248,23.220032c6.953461,-77.689331 -28.01474,-47.580078 -59.105347,-27.441772c25.698608,-86.244659 -73.282242,-36.475342 -132.987,-29.552734c57.339371,-35.508423 110.378754,-70.332855 46.439911,-86.547089c78.371185,-55.287811 -22.759018,-47.958832 -52.772614,-65.438019c29.08577,-12.931641 88.792206,-16.360321 42.218094,-52.772644c52.197433,-38.356903 -35.826218,-55.468201 -66.493515,-81.269836c58.542435,-5.378204 131.451202,-6.458008 65.438065,-44.32901c27.499832,1.43631 49.349899,4.797272 15.831787,-24.275391c46.993576,22.432037 21.305893,-40.457382 6.332718,-90.768921c60.402588,56.910583 141.869049,91.474731 82.325287,-27.441772z"/>
   <path fill="#fffe48" filter="url(#filter3690)" d="m209.918381,117.81871c38.726608,26.406845 89.276016,73.642441 51.202438,-35.252686c45.197662,77.529114 70.099304,91.50946 63.561676,7.050537c21.792877,60.384537 42.357208,45.954803 61.796082,-37.015316c11.357208,162.238964 32.48761,107.390881 52.968018,66.980091c3.228882,11.726784 -4.432343,51.887383 12.359192,28.202156c51.754883,37.995117 96.883789,-25.200562 130.654541,-63.454834c-52.870544,94.245102 28.851563,62.267181 86.955872,52.43837c-76.458618,59.87886 21.317139,29.100632 40.167419,19.829636c-24.302002,20.971329 -55.142578,44.92984 -12.359253,35.252701c-47.763367,44.653259 -53.781128,81.618805 19.421631,103.995361c-25.81842,12.580048 -34.253357,38.649475 3.531189,38.777985c-23.748962,1.918121 -31.820007,14.424225 0,19.388977c-108.426453,20.616028 -41.963745,52.1651 -10.593567,77.555908c-157.564148,-43.562866 -69.599426,48.949341 -12.359253,91.656952c-101.354004,-60.256287 -214.701263,-107.991211 -120.060852,1.762695c-24.096497,-13.13092 -57.453979,-40.707947 -45.90564,1.762634c-37.593384,-49.964508 -46.378815,-40.718262 -44.140076,-8.813232c-36.637085,-40.410126 -56.29126,-22.250397 -67.092834,26.439514c-18.025787,-10.643311 -21.789398,-64.001373 -72.389648,22.914246c6.535187,-39.751099 -11.321472,-42.97583 -42.374451,-26.439453c0.38092,-48.851532 -39.057922,7.792175 -51.202454,19.388977c5.81601,-64.871643 -23.432068,-39.730042 -49.436844,-22.914246c21.494812,-72.015472 -61.294678,-30.457428 -111.23288,-24.67688c47.959747,-29.650116 92.322906,-58.728973 38.843231,-72.268066c65.551163,-46.166077 -19.036079,-40.046265 -44.14003,-54.641632c24.327904,-10.798096 74.267517,-13.661072 35.312027,-44.065857c43.658936,-32.028534 -29.965736,-46.316711 -55.616455,-67.86142c48.966019,-4.490875 109.948318,-5.392517 54.733658,-37.015305c23.001389,1.199341 41.277206,4.005783 13.24202,-20.270279c39.30632,18.731049 17.820648,-33.782471 5.296799,-75.793289c50.521881,47.521118 118.661987,76.382645 68.858444,-22.914246z" id="path2916"/>
   <path fill="#faffac" stroke="#ff2626" stroke-width="1.033737" stroke-miterlimit="4" filter="url(#filter3706)" d="m294.798065,185.691132c72.590088,109.99826 101.53421,72.165161 85.573364,-17.253235c22.246765,85.916946 48.340668,164.963989 46.077972,-22.644897c7.848053,153.867065 82.582275,132.259888 146.132935,19.409897c-89.782928,94.853012 -9.460022,92.934158 94.789001,44.211472c-89.855286,41.05275 -122.737732,84.269592 5.266052,85.187988c-180.270691,6.363495 -43.258911,30.531372 2.632996,35.584839c-27.19281,34.351288 -201.7146,-29.384369 -140.866882,105.676178c-55.577728,-135.955017 -78.067535,-70.51712 -82.940308,10.783295c-15.196686,-77.096069 -27.850311,-109.950348 -85.573395,-2.156677c6.832733,-139.15741 -29.203461,-67.705475 -75.04126,-2.156647c40.205566,-90.977417 -89.875168,-80.795166 -89.875168,-80.795166c26.408722,-15.090698 60.388596,-75.208801 -12.154633,-80.414948c104.957382,38.981812 108.998001,1.807556 54.6353,-81.413803c66.729523,83.769608 126.816223,118.891312 51.344025,-14.018295z" id="path3704"/>
  </g>
 </g>
</svg>