<?xml version="1.0" standalone="no"?>
<!DOCTYPE svg PUBLIC "-//W3C//DTD SVG 20010904//EN"
 "http://www.w3.org/TR/2001/REC-SVG-20010904/DTD/svg10.dtd">
<svg version="1.0" xmlns="http://www.w3.org/2000/svg"
 width="1000.000000pt" height="998.000000pt" viewBox="0 0 1000.000000 998.000000"
 preserveAspectRatio="xMidYMid meet">

<g transform="translate(0.000000,998.000000) scale(0.100000,-0.100000)"
fill="#000000" stroke="none">
<path d="M391 7253 c1 -1749 3 -2149 13 -2113 19 68 63 147 109 198 85 93 230
162 338 162 27 0 49 1 49 3 0 1 -9 26 -20 55 -40 105 -18 242 55 342 46 63
138 124 229 153 146 46 414 19 563 -56 60 -31 226 -141 350 -234 99 -73 133
-93 259 -147 128 -56 363 -103 464 -94 27 3 47 1 44 -4 -16 -25 -77 -41 -185
-49 -65 -5 -129 -13 -143 -19 -74 -28 -89 -101 -32 -155 51 -48 111 -61 211
-47 92 14 171 14 200 2 24 -10 33 -6 -180 -80 -83 -29 -158 -59 -167 -68 -35
-30 -20 -75 33 -102 21 -11 53 -33 71 -49 38 -33 116 -74 173 -90 44 -13 264
-37 942 -102 249 -24 451 -45 449 -47 -5 -4 -356 -82 -370 -82 -6 1 0 7 14 15
l25 14 -26 1 c-14 0 -61 -11 -105 -24 -67 -20 -111 -24 -287 -30 l-207 -8 -87
43 c-103 52 -184 62 -276 35 -69 -20 -78 -31 -26 -33 21 -1 80 -20 129 -42
115 -51 143 -56 228 -41 38 7 81 10 94 7 26 -7 174 -171 202 -225 33 -64 12
-134 -62 -205 -35 -34 -47 -39 -100 -44 l-61 -6 5 74 5 74 -22 -40 c-31 -58
-87 -124 -123 -146 -90 -55 -274 -97 -365 -83 l-45 7 56 28 c101 51 185 155
203 252 4 20 10 37 14 37 4 0 15 14 24 30 21 35 16 37 -21 11 -81 -57 -212
-68 -313 -26 -35 15 -70 32 -78 39 -10 8 -9 2 3 -22 9 -18 35 -46 58 -62 58
-42 109 -54 183 -42 33 5 62 8 63 7 9 -8 -120 -99 -183 -130 -89 -44 -178 -58
-301 -45 -50 5 -100 13 -110 16 -16 6 -15 3 6 -20 35 -38 141 -88 200 -94 28
-2 53 -8 55 -13 3 -4 -25 -22 -61 -40 -87 -43 -210 -52 -289 -22 -27 11 -49
24 -48 30 1 5 5 34 8 64 l6 54 -17 -35 c-10 -19 -50 -67 -89 -106 -78 -79
-131 -105 -256 -126 -167 -27 -374 67 -471 213 -56 86 -56 90 6 122 115 60
179 144 192 252 l6 50 -27 -40 c-108 -157 -247 -231 -422 -223 -40 2 -73 0
-73 -4 0 -15 112 -60 164 -65 31 -3 56 -9 56 -12 0 -4 -17 -23 -38 -43 -95
-92 -222 -142 -362 -142 -75 0 -93 4 -153 32 -123 57 -224 184 -261 328 -31
118 -16 275 35 381 l21 43 -36 42 c-42 49 -82 126 -101 195 -11 40 -13 -305
-14 -2124 l-1 -2173 4570 0 4570 0 0 4410 0 4410 -4570 0 -4570 0 1 -2157z
m6529 2137 c52 -6 122 -18 155 -27 304 -82 515 -334 515 -614 l0 -87 66 -12
c150 -29 283 -130 351 -268 33 -66 38 -84 41 -168 3 -59 0 -113 -8 -142 -16
-58 -71 -166 -106 -210 l-27 -33 27 11 c76 28 223 0 330 -65 67 -40 224 -166
277 -222 46 -48 89 -113 89 -133 0 -9 -16 -49 -36 -90 -41 -87 -150 -201 -227
-239 -155 -75 -273 -66 -427 33 -38 25 -70 42 -70 38 0 -14 56 -96 84 -124 40
-39 102 -65 174 -73 56 -6 62 -9 62 -29 0 -40 -63 -150 -117 -204 -65 -66
-155 -109 -243 -118 -71 -7 -165 7 -214 31 -52 27 -188 40 -274 26 -125 -19
-257 -106 -331 -218 -30 -45 -31 -46 -31 -17 0 16 10 58 22 94 32 92 105 165
210 208 86 36 139 40 214 17 61 -18 60 -19 42 3 -45 50 -88 184 -88 271 0 28
-4 51 -10 51 -13 0 -50 -124 -50 -167 l0 -36 -66 7 c-241 25 -430 218 -451
461 l-6 73 31 7 c50 10 121 64 157 118 19 28 33 53 31 54 -2 2 -25 -10 -52
-27 -148 -93 -311 -102 -464 -25 -83 42 -178 165 -196 251 -5 29 -4 30 45 43
64 16 157 76 194 124 16 21 39 63 53 94 l25 56 -38 -33 c-106 -93 -260 -160
-369 -160 -66 0 -189 24 -256 51 l-50 19 22 -31 c32 -44 105 -95 173 -120 31
-12 57 -25 57 -28 0 -11 -90 -52 -145 -67 -107 -29 -285 -9 -371 41 -55 32
-121 108 -149 170 -28 62 -53 171 -57 248 -2 31 -6 57 -9 57 -13 0 -48 -97
-55 -150 -5 -43 -21 -78 -72 -160 -35 -58 -73 -114 -83 -126 -29 -31 -23 -35
24 -15 65 28 113 33 175 20 68 -14 182 -71 182 -91 0 -2 -53 -2 -118 0 -140 5
-207 -10 -292 -65 -64 -42 -144 -122 -167 -166 -22 -42 -28 -20 -13 46 13 55
58 147 72 147 4 0 8 4 8 9 0 5 -19 2 -42 -6 -65 -22 -180 -14 -243 17 -41 21
-51 31 -57 60 -14 62 -10 194 6 249 45 153 176 321 294 377 31 15 58 28 58 28
1 1 -9 42 -22 91 -28 111 -30 170 -5 267 63 247 249 445 493 526 244 81 430
61 581 -61 31 -26 59 -47 62 -47 2 0 35 19 72 42 136 83 247 120 416 138 104
11 112 11 217 0z m-3238 -551 c136 -28 318 -148 385 -254 26 -42 30 -45 58
-38 67 17 157 8 218 -22 118 -59 218 -208 240 -358 l10 -73 -39 -74 c-71 -137
-212 -251 -356 -290 -74 -19 -237 -9 -325 21 l-73 25 -6 -35 c-21 -126 -82
-246 -178 -348 -104 -111 -230 -174 -396 -198 -81 -12 -234 23 -353 80 -28 14
-52 25 -54 25 -29 0 91 -127 156 -165 28 -16 51 -33 51 -38 0 -20 -45 -99 -89
-153 -53 -65 -126 -119 -218 -161 -45 -21 -77 -27 -154 -31 l-97 -5 5 59 c5
59 -10 153 -19 124 -3 -8 -11 -33 -18 -55 -56 -177 -167 -284 -349 -334 -41
-11 -76 -22 -78 -25 -2 -2 27 -9 66 -16 117 -19 199 6 284 88 26 26 47 42 47
37 0 -20 -74 -154 -113 -205 -102 -131 -281 -251 -430 -289 -128 -33 -147 -31
-203 18 -87 77 -118 83 -271 50 -70 -15 -114 -19 -155 -15 -243 28 -392 192
-375 414 10 127 64 210 176 266 139 71 169 144 169 417 1 81 6 121 22 170 58
173 212 318 385 364 33 8 97 15 142 15 140 0 154 12 192 161 50 195 180 358
356 444 183 89 414 88 599 -4 33 -16 61 -29 62 -28 0 1 20 43 44 92 78 163
243 300 412 341 67 16 200 17 270 3z m2140 -1788 c25 -16 54 -42 63 -58 16
-28 21 -30 66 -25 124 12 238 -93 239 -219 0 -43 -4 -50 -50 -93 -28 -26 -67
-54 -88 -63 -37 -15 -144 -20 -183 -8 -34 11 -13 -12 31 -35 24 -12 59 -20 90
-20 54 0 57 -4 36 -53 -10 -24 -30 -40 -80 -66 -72 -36 -126 -44 -216 -29
l-45 8 40 -25 c22 -14 36 -25 32 -25 -14 0 -71 32 -92 51 -20 18 -22 18 -60
-2 -22 -12 -72 -52 -111 -89 -65 -62 -136 -102 -151 -86 -9 8 41 59 89 93 63
43 111 147 78 168 -5 3 -39 -17 -76 -45 -36 -29 -67 -50 -69 -48 -8 8 28 66
81 133 31 39 63 83 71 99 21 40 18 103 -6 156 -40 88 -22 189 46 251 47 44 83
58 154 59 55 0 72 -4 111 -29z m2582 -896 c89 -23 165 -65 225 -124 l55 -53
42 20 c129 63 299 43 414 -48 77 -61 129 -172 131 -279 1 -41 -5 -61 -32 -106
-67 -111 -167 -170 -306 -182 l-76 -6 38 -20 c21 -10 64 -22 95 -24 47 -5 67
-1 112 19 30 14 70 39 90 57 l37 32 63 -31 c86 -43 139 -88 172 -150 33 -61
45 -149 26 -204 -18 -55 -110 -148 -179 -182 -59 -29 -59 -29 -64 -80 -16
-159 -192 -324 -363 -341 l-57 -6 27 35 c30 40 69 141 64 167 -2 10 -13 -3
-28 -34 -38 -77 -141 -172 -246 -227 -162 -85 -315 -105 -425 -56 -59 27 -117
73 -149 118 l-20 29 30 47 c37 60 38 75 3 42 -47 -43 -90 -68 -149 -88 -85
-29 -153 -26 -284 15 l-25 7 25 -27 c48 -51 108 -79 174 -80 34 0 79 3 101 8
l40 7 -80 -76 c-86 -81 -149 -123 -258 -169 -80 -33 -79 -34 -98 64 -23 129
-45 145 -204 155 -244 15 -570 38 -573 41 -1 1 32 5 75 9 191 17 369 58 487
112 l59 27 -67 35 c-77 41 -107 76 -114 138 -5 52 11 82 63 114 61 38 57 108
-7 129 -32 10 -461 54 -643 66 -49 3 -128 11 -175 17 -107 15 -75 25 80 27
121 1 607 46 663 62 61 16 70 76 20 122 -11 9 -58 30 -104 46 l-84 28 50 8
c148 20 239 59 302 128 52 57 77 105 104 204 29 105 54 157 95 192 62 55 162
50 206 -9 l21 -30 39 60 c75 115 214 215 340 246 73 17 173 17 242 -1z m-4704
-65 c84 -43 131 -118 139 -225 l6 -70 44 -3 c31 -2 87 10 193 43 82 26 151 45
154 42 3 -3 -15 -13 -41 -22 -63 -25 -99 -65 -136 -154 -38 -90 -57 -121 -75
-121 -8 0 -14 -4 -14 -8 0 -5 -15 -26 -34 -48 -30 -35 -91 -74 -138 -88 -15
-4 -15 -8 3 -43 15 -28 19 -52 16 -90 -7 -102 -87 -173 -193 -173 -66 0 -112
26 -149 85 -25 40 -30 59 -30 110 0 52 4 67 28 98 15 20 27 37 25 37 -2 0 -21
-7 -43 -15 -22 -8 -61 -14 -87 -15 -40 0 -50 4 -74 33 -78 93 -69 220 21 295
33 27 34 29 24 72 -33 144 112 299 267 286 28 -2 71 -14 94 -26z m2399 -1577
c38 -29 71 -82 71 -114 0 -25 4 -29 28 -29 55 0 125 -32 172 -80 54 -53 80
-118 80 -196 0 -50 -2 -54 -52 -100 -68 -61 -139 -93 -224 -101 l-67 -6 26 35
c22 28 57 106 57 126 0 2 -19 -16 -41 -42 -75 -85 -181 -116 -289 -86 l-35 9
32 -29 c39 -35 103 -54 157 -45 l40 6 -22 -24 c-29 -30 -106 -73 -150 -82 -46
-10 -157 13 -177 35 -23 26 -44 88 -45 133 0 48 29 106 72 142 21 18 28 30 20
33 -7 2 -21 21 -32 43 -27 52 -26 123 3 174 23 41 86 85 123 85 15 0 23 8 27
28 8 37 44 81 81 98 40 18 111 12 145 -13z m-1699 -273 c-6 -11 -14 -40 -19
-66 -8 -44 -8 -45 13 -40 11 3 31 9 44 12 l23 6 -22 -53 c-90 -227 -140 -361
-137 -364 2 -2 79 59 173 136 199 165 195 162 168 118 -11 -19 -70 -119 -131
-224 -60 -104 -141 -244 -180 -310 -39 -66 -70 -121 -68 -122 2 -2 15 1 30 7
99 37 243 -42 297 -165 10 -23 22 -67 26 -96 7 -46 12 -55 31 -57 34 -5 87 16
118 46 47 47 71 118 169 512 52 212 99 393 103 403 9 21 6 -76 -8 -273 -12
-175 -73 -519 -104 -586 -13 -28 -42 -66 -64 -85 l-41 -34 21 -34 c32 -51 30
-133 -4 -192 -30 -50 -54 -70 -110 -88 -57 -19 -65 -34 -45 -89 32 -89 18
-160 -62 -319 -22 -46 -41 -85 -41 -88 0 -27 134 151 203 270 28 47 47 71 47
59 0 -31 39 -61 95 -75 158 -38 299 -186 298 -314 0 -69 -62 -186 -139 -263
-43 -42 -80 -91 -100 -132 -42 -83 -127 -178 -191 -212 -46 -26 -162 -62 -170
-54 -2 2 11 27 28 55 45 72 52 172 18 251 l-24 55 -7 -75 c-14 -159 -77 -253
-215 -322 -121 -60 -233 -60 -361 3 -74 36 -170 122 -207 184 -21 36 -65 175
-65 205 0 4 14 10 32 14 40 8 94 49 113 87 18 33 7 39 -19 10 -10 -11 -41 -29
-69 -41 -90 -39 -215 -12 -306 67 -41 35 -51 52 -70 115 -12 40 -26 82 -29 93
-5 15 -8 8 -14 -25 -7 -45 -1 169 7 223 3 24 0 27 -13 21 -9 -4 -48 -16 -87
-26 -110 -30 -200 -10 -281 64 -56 52 -84 111 -84 177 l0 36 -20 -29 c-10 -17
-36 -40 -57 -53 -21 -13 -31 -23 -22 -23 27 0 90 -70 117 -129 15 -31 28 -81
30 -113 10 -135 -88 -296 -230 -378 -71 -41 -114 -51 -238 -59 l-105 -6 54
-29 c30 -15 77 -30 107 -33 62 -7 64 -10 64 -125 0 -163 -95 -323 -240 -402
-53 -29 -53 -29 -87 -11 -83 45 -174 174 -195 280 l-10 54 -52 11 c-75 18
-184 72 -241 122 -109 93 -161 167 -202 285 -23 66 -27 95 -27 188 0 77 5 128
18 169 70 235 249 397 489 444 l87 17 -36 20 c-58 31 -122 110 -140 173 -37
127 23 268 145 340 43 25 53 27 166 26 109 -1 132 -4 245 -38 92 -28 150 -39
221 -43 137 -8 182 9 273 100 103 102 104 102 342 99 267 -4 363 18 526 124
139 89 225 197 338 424 66 133 109 210 116 210 3 0 0 -9 -6 -20z m3741 -419
c31 -12 66 -32 78 -45 l22 -23 57 31 c54 29 63 31 162 31 99 0 109 -2 178 -34
128 -60 220 -183 239 -317 10 -72 -70 -198 -171 -273 -80 -59 -141 -76 -274
-75 l-113 1 43 -28 c59 -39 128 -61 198 -62 64 0 107 16 184 70 35 25 55 33
72 29 23 -6 24 -10 24 -90 0 -201 -110 -372 -299 -464 -71 -34 -83 -37 -186
-40 l-111 -4 -28 42 c-15 24 -41 56 -58 72 -27 26 -101 78 -112 78 -3 0 11
-24 30 -52 123 -187 107 -394 -41 -557 -64 -70 -145 -122 -235 -151 -60 -19
-85 -22 -163 -18 -57 4 -116 14 -154 27 l-62 22 -78 -78 c-113 -113 -221 -162
-359 -163 -115 0 -119 2 -132 79 -11 68 -38 140 -64 174 -11 15 -13 5 -10 -72
4 -102 -20 -211 -65 -292 -31 -58 -111 -141 -178 -185 -48 -32 -149 -74 -178
-74 -8 0 -20 -27 -31 -72 -33 -138 -98 -234 -208 -310 -72 -48 -78 -44 -78 57
0 89 23 184 60 253 l29 54 -52 -5 c-308 -35 -436 -32 -562 12 -83 29 -104 47
-147 127 -63 115 -85 230 -68 352 19 137 76 223 204 307 118 78 155 119 165
186 9 54 0 178 -20 268 -30 138 -106 340 -151 403 -34 49 -13 42 29 -9 22 -26
79 -103 127 -171 90 -126 149 -192 172 -192 8 0 21 11 30 25 13 20 15 38 9 93
-15 147 -139 568 -243 826 -22 54 -37 94 -33 90 71 -83 406 -603 438 -678 38
-91 72 -132 122 -146 135 -37 246 42 269 192 7 45 5 60 -13 98 -34 70 -51 131
-90 325 -20 99 -43 206 -50 238 -7 31 -10 57 -6 57 4 0 60 -102 126 -226 66
-124 130 -238 143 -254 31 -39 100 -64 156 -57 38 6 54 16 117 80 41 41 82 79
92 84 17 9 17 13 -7 77 -42 110 -106 224 -160 284 -36 39 -44 51 -26 42 50
-26 140 -91 246 -178 188 -152 213 -169 270 -175 29 -3 87 -17 129 -32 43 -14
79 -24 81 -22 3 2 11 29 19 61 51 196 207 346 406 391 87 20 218 13 290 -14z
m-1546 -2621 c3 -5 -1 -10 -11 -10 -29 0 -138 -64 -181 -107 -54 -54 -80 -107
-102 -207 l-18 -81 -22 69 c-24 78 -26 103 -10 157 31 102 164 186 296 188 23
1 45 -3 48 -9z"/>
<path d="M5900 6783 c-19 -20 -59 -47 -89 -61 -47 -22 -63 -24 -130 -19 l-76
6 23 -20 c98 -80 269 -19 307 109 8 28 7 28 -35 -15z"/>
<path d="M9000 5035 c-23 -43 -143 -148 -207 -182 -83 -44 -152 -57 -274 -50
-57 3 -115 9 -129 13 -25 7 -25 7 -6 -14 44 -50 173 -102 253 -102 63 0 201
57 265 110 44 36 92 117 108 182 15 57 9 79 -10 43z"/>
<path d="M3742 5860 c-24 -39 -97 -71 -161 -72 -34 0 -61 -2 -61 -4 0 -9 63
-34 86 -34 48 0 108 37 133 81 23 40 26 65 3 29z"/>
<path d="M3525 5480 c-3 -6 1 -7 9 -4 18 7 21 14 7 14 -6 0 -13 -4 -16 -10z"/>
<path d="M4398 2742 c-22 -47 -100 -128 -164 -170 -72 -48 -142 -66 -261 -67
-113 0 -118 -7 -30 -45 33 -15 80 -25 128 -28 74 -4 78 -3 159 38 119 63 175
141 193 273 7 47 -3 47 -25 -1z"/>
<path d="M7638 2410 c-51 -42 -162 -96 -238 -115 -112 -29 -251 -8 -392 60
-26 13 -48 19 -48 13 0 -20 127 -135 175 -158 92 -45 252 -37 358 17 61 30
123 93 160 161 16 29 27 52 25 52 -2 0 -20 -13 -40 -30z"/>
<path d="M2371 5198 c-53 -20 -55 -20 -131 -3 -87 20 -120 16 -156 -20 -34
-34 -57 -45 -96 -45 -31 -1 -32 -1 -14 -15 26 -20 81 -19 141 1 39 14 65 15
139 9 165 -16 225 -12 281 17 55 28 130 53 189 63 21 3 35 9 32 12 -3 3 -54
-2 -114 -12 -102 -17 -111 -17 -157 -2 -58 20 -48 21 -114 -5z"/>
<path d="M2446 4293 c-26 -14 -82 -32 -123 -41 -89 -19 -175 -8 -269 33 -31
14 -60 22 -63 19 -11 -11 93 -93 138 -109 123 -42 291 3 360 95 25 35 22 35
-43 3z"/>
</g>
</svg>
